<svg viewBox="0 0 468 300" xmlns="http://www.w3.org/2000/svg"><g fill="none"><path d="m425.540484 0h-383.6828598c-1.5979856 0-3.1987951 0-4.7939288.00931852-1.3483904.00960091-2.6936465.02456702-4.0389025.06127636-2.9339232.07934864-5.8929781.25244729-8.790192.77315512-2.9435241.52974398-5.6826054 1.3938253-8.3547628 2.75432982-2.6269767 1.3359375-5.032003 3.08330196-7.11621799 5.16839232-2.0851186 2.08509036-3.83248306 4.48616336-5.16813818 7.11596386-1.3607869 2.6721574-2.22543298 5.4120858-2.75150603 8.357869-.52350338 2.898061-.69775979 5.8565512-.77682605 8.7873682-.03614458 1.345256-.05164721 2.690512-.06042922 4.0354857-.00670933 1.5985504-.00670933 3.1959714-.00670933 4.7973456v215.5058355c0 1.601375 0 3.196.00670933 4.797657.00878201 1.344973.02428464 2.690229.06042922 4.035485.07906626 2.928248.25332267 5.886738.77682605 8.783952.52607305 2.946912 1.39071913 5.685711 2.75150603 8.358151 1.33565512 2.629801 3.08301958 5.03398 5.16813818 7.115964 2.08421499 2.088479 4.48924129 3.835561 7.11621799 5.16811 2.6721574 1.364175 5.4112387 2.228539 8.3547628 2.758001 2.8972139.517319 5.8562688.693524 8.790192.772872 1.345256.030497 2.6905121.04857 4.0389025.054782 1.5951337.012425 3.1959432.012425 4.7939288.012425h383.6828598c1.595162 0 3.195999 0 4.790822-.012425 1.345285-.006212 2.690569-.024285 4.041981-.054782 2.927711-.079348 5.886201-.255553 8.790503-.772872 2.93957-.529462 5.679216-1.393826 8.351656-2.758001 2.629801-1.332549 5.027767-3.079631 7.116275-5.16811 2.081701-2.081984 3.829038-4.486163 5.16811-7.115964 1.363864-2.67244 2.227663-5.411239 2.751195-8.358151.523814-2.897214.693806-5.855704.773155-8.783952.036709-1.345256.05481-2.690512.061022-4.035485.012397-1.601657.012397-3.196254.012397-4.797657v-215.5058355c0-1.6013742 0-3.1987952-.012397-4.7973456-.006212-1.3449737-.024313-2.6902297-.061022-4.0354857-.079377-2.930817-.249341-5.8893072-.773155-8.7873682-.523503-2.9457832-1.387331-5.6857116-2.751195-8.357869-1.339072-2.6298005-3.086409-5.0308735-5.16811-7.11596386-2.088508-2.08509036-4.486474-3.83245482-7.116275-5.16839232-2.67244-1.36050452-5.412086-2.22458584-8.351656-2.75432982-2.904274-.52070783-5.862764-.69380648-8.790503-.77315512-1.351412-.03670934-2.696696-.05167545-4.041981-.06127636-1.594823-.00931852-3.19566-.00931852-4.790822-.00931852z" fill="#000"/><path d="m425.540484 9.97364458 4.719945.00903614c1.278615.00903615 2.557257.02287278 3.84296.05788778 2.236474.0604292 4.852663.1815701 7.291293.6186935 2.119823.3817772 3.897656.9623494 5.603821 1.8309488 1.684394.8558924 3.227627 1.9775038 4.575085 3.3230422 1.352598 1.3545746 2.47565 2.90032 3.342837 4.6033509.863771 1.6928652 1.440672 3.4622553 1.82019 5.5976092.435994 2.4120858.55657 5.0353916.617875 7.2856739.034422 1.2701431.051365 2.5402862.057605 3.8406439.011861 1.5725715.011861 3.1442959.011861 4.7199736v215.5058355c0 1.575678 0 3.144579-.012143 4.750753-.005958 1.269861-.022873 2.540004-.057606 3.812406-.061022 2.246894-.18157 4.868788-.622929 7.309394-.374181 2.105987-.950772 3.875659-1.819343 5.576996-.864674 1.698795-1.986003 3.242846-3.332699 4.588949-1.355111 1.355422-2.893261 2.473645-4.597675 3.337444-1.69343.864363-3.468214 1.444399-5.567141 1.822195-2.488018.443335-5.213827.565323-7.266726.620952-1.291604.029085-2.576996.046565-3.893703.052805-1.569211.011861-3.144014.011861-4.713479.011861h-383.6828878c-.020896 0-.0412274 0-.0624058 0-1.5513931 0-3.1058923 0-4.6855234-.012143-1.287933-.005958-2.5730421-.023155-3.815512-.051393-2.0997741-.056759-4.8272779-.178464-7.2949925-.619259-2.116971-.380647-3.8917545-.960655-5.6074925-1.836314-1.6883189-.856174-3.2253388-1.973268-4.5810429-3.331231-1.345256-1.342997-2.4631965-2.882247-3.3275602-4.583584-.8652109-1.699642-1.4440889-3.47468-1.8247082-5.605798-.4399756-2.435806-.560834-5.047252-.621235-7.278897-.0344785-1.277767-.04887986-2.555252-.05706887-3.825395l-.00621235-3.749718v-.990023-215.5058355-.9900226l.00592997-3.741811c.00847139-1.2777673.02287275-2.5552522.05735125-3.83189.060401-2.2339044.1812594-4.8464797.6248777-7.3026167.377259-2.1119165.9558546-3.8869541 1.8255836-5.5950678.8575865-1.6883472 1.9775037-3.2295746 3.3298475-4.5816077 1.3469503-1.3475151 2.8889966-2.4677146 4.5880741-3.3317959 1.6973833-.8643637 3.4755271-1.4446536 5.5925264-1.8255836 2.4391943-.438253 5.0571348-.5591115 7.2992282-.6198231 1.2780497-.0347326 2.5560994-.04856923 3.8245481-.057323l4.7357869-.00931852z" fill="#fff"/><g fill="#000"><path d="m64.3701386 18.7514966c4.0019955-5.0056288 6.7177241-11.72671309 6.0014684-18.59486068-5.8583584.29130271-13.0073607 3.8649567-17.146282 8.87451054-3.7163121 4.28990964-7.0055535 11.29241344-6.1480516 17.87264684 6.5763084.5704349 13.1465456-3.2871235 17.2928652-8.1522967m5.9267508 9.4370953c-9.5503859-.5688818-17.6705478 5.4203031-22.2313441 5.4203031-4.5633095 0-11.5473739-5.1336314-19.1012237-4.9952655-9.8318053.1444089-18.9545839 5.7033886-23.94380645 14.544776-10.26198231 17.6871235-2.70813253 43.9233151 7.27110315 58.3284825 4.8461408 7.126694 10.6865682 14.973711 18.3822289 14.691839 7.2711032-.285316 10.121075-4.70817 18.9594127-4.70817 8.831843 0 11.3990681 4.70817 19.0959714 4.565541 7.9818806-.142715 12.9719785-7.130253 17.8180628-14.263894 5.5594315-8.1240583 7.8352692-15.9685048 7.9784074-16.3991336-.1431664-.1426299-15.3913215-5.9922063-15.5327089-23.532323-.1439571-14.686587 11.9715079-21.6723457 12.5417168-22.1055723-6.8417168-10.1189289-17.5317583-11.2599115-21.23782-11.5465832" transform="translate(63.226 81.89)"/><path d="m40.5024334.45921554c20.7576055 0 35.2118788 14.30842436 35.2118788 35.14038026 0 20.9063347-14.7517037 35.2890813-35.7323889 35.2890813h-22.9826431v36.5488889h-16.60496046v-106.97835046zm-23.5031814 56.49143446h19.0530497c14.4571253 0 22.6852409-7.7833961 22.6852409-21.2767037 0-13.4918674-8.2281156-21.2023249-22.6108904-21.2023249h-19.1274002zm63.0535956 28.320802c0-13.6420369 10.4531815-22.0188536 28.9886014-23.0570219l21.349614-1.2598079v-6.0044899c0-8.6742752-5.857201-13.8636766-15.641143-13.8636766-9.269136 0-15.0519858 4.4472516-16.4590829 11.4169711h-15.1235128c.8894672-14.0867564 12.8984469-24.4655592 32.1746047-24.4655592 18.904349 0 30.987679 10.0084338 30.987679 25.6510166v53.7487108h-15.346536v-12.8255086h-.368929c-4.521602 8.6742756-14.382747 14.1596666-24.612848 14.1596666-15.2722143 0-25.9484474-9.4893635-25.9484474-23.500301zm50.3382154-7.0426581v-6.1531909l-19.201807 1.1854574c-9.563714.6677993-14.9747555 4.8933829-14.9747555 11.5656721 0 6.8195783 5.6341205 11.2682417 14.2340455 11.2682417 11.193891 0 19.942517-7.7104575 19.942517-17.8661803zm30.427127 57.8999431v-12.974209c1.184018.296018 3.852363.296018 5.187961.296018 7.413028 0 11.416971-3.113093 13.862237-11.11954 0-.148729 1.409949-4.744682 1.409949-4.819033l-28.170632-78.0655681h17.34567l19.722289 63.461154h.294578l19.722318-63.461154h16.90239l-29.211681 82.0680721c-6.669409 18.905789-14.379894 24.984629-30.541519 24.984629-1.33557 0-5.339514-.148729-6.52356-.370369z" transform="translate(176.178 89.743)"/></g></g></svg>